<?xml version="1.0" encoding="utf-8"?>
<svg viewBox="0 0 148 40" fill="none" xmlns="http://www.w3.org/2000/svg">
  <defs>
    <clipPath id="clip0_1108_36141">
      <rect width="148" height="40" fill="white"/>
    </clipPath>
  </defs>
  <g id="Logo" clip-path="url(#clip0_1108_36141)">
    <g id="Logo_2">
      <path id="Vector" d="M27.4086 5.03439C27.3851 5.02842 27.3619 5.02596 27.3526 5C18.7049 5 10.0569 5 1.40918 5C1.22996 5.0614 1.04099 5.09684 0.873331 5.19017C0.428174 5.43789 0.142002 5.79929 0.0328809 6.28911C0.0267383 6.31648 0.0112012 6.34209 0 6.36841C0 14.7778 0 23.1868 0 31.5962C0.105508 31.959 0.256182 32.2955 0.560782 32.5495C0.878751 32.8148 1.24514 32.9534 1.66319 32.9583C2.00573 32.9622 2.34863 32.9643 2.69081 32.9565C2.81692 32.9537 2.85269 32.9892 2.8516 33.1123C2.84546 33.7425 2.85449 34.373 2.84727 35.0032C2.83643 35.9874 3.64616 36.847 4.59465 36.9712C4.6297 36.9758 4.66294 36.9902 4.69727 37C4.85372 37 5.01054 37 5.167 37C5.54169 36.9102 5.90266 36.7937 6.20401 36.5446C6.69975 36.1347 6.96352 35.6186 6.96713 34.9842C6.97075 34.3646 6.97111 33.7449 6.96533 33.1253C6.96424 33.0025 6.9852 32.9558 7.12901 32.9558C11.939 32.96 16.7494 32.96 21.5594 32.9558C21.7003 32.9558 21.7263 32.9976 21.7249 33.1236C21.7184 33.7257 21.7216 34.3277 21.722 34.9298C21.7223 35.9681 22.4114 36.7758 23.4614 36.9705C23.4831 36.9744 23.5022 36.9898 23.5228 37C23.7035 37 23.8842 37 24.0648 37C24.0811 36.9681 24.1132 36.9716 24.1418 36.9663C25.1391 36.7856 25.8411 35.9681 25.8411 34.9881C25.8411 34.3625 25.8447 33.7369 25.8382 33.1116C25.8368 32.9867 25.8762 32.9541 26.0005 32.9569C26.3314 32.9646 26.6628 32.9597 26.9938 32.9593C27.9603 32.9586 28.6952 32.2478 28.6952 31.3053C28.696 23.0858 28.696 14.8662 28.6952 6.64665C28.6949 5.85192 28.2046 5.24105 27.4086 5.03439ZM7.09288 26.0777C11.9325 27.5745 16.7454 27.5654 21.593 26.0756C18.0599 30.8474 10.7701 31.0162 7.09288 26.0777ZM25.9372 22.016C25.9372 22.323 25.8856 22.3738 25.5741 22.3738C21.847 22.3738 18.1203 22.3738 14.3932 22.3738C10.6722 22.3738 6.95123 22.3738 3.23028 22.3738C2.89532 22.3738 2.85449 22.3345 2.85449 22.0146C2.85449 20.4476 2.85775 18.8806 2.8498 17.3139C2.84907 17.1343 2.88123 17.0764 3.08358 17.0581C4.04796 16.9711 4.83457 16.1662 4.90828 15.2209C4.98127 14.2855 4.33449 13.3946 3.39685 13.1462C3.26424 13.1111 3.12585 13.0862 2.98927 13.0796C2.87834 13.0743 2.85016 13.041 2.85196 12.9354C2.85847 12.5322 2.85449 12.1287 2.85449 11.7252C2.85449 10.5031 2.85449 9.28136 2.85449 8.05926C2.85449 7.80067 2.92712 7.73155 3.19848 7.73155C10.6523 7.73155 18.1065 7.73155 25.5604 7.73155C25.8277 7.73155 25.8863 7.78558 25.8863 8.05155C25.8877 9.65925 25.8859 11.2673 25.8892 12.875C25.8895 12.9943 25.8541 13.0297 25.7291 13.0403C24.7228 13.1255 23.903 13.9806 23.8773 14.962C23.8509 15.9718 24.6036 16.8578 25.611 17.003C25.9369 17.05 25.9369 17.05 25.9369 17.3679C25.9376 18.917 25.9376 20.4665 25.9372 22.016Z" fill="#FFD333"/>
      <path id="Vector_2" d="M7.12585 26.0686C11.9741 27.6026 16.7956 27.5932 21.6518 26.0664C18.1124 30.9569 10.8096 31.1299 7.12585 26.0686Z" fill="#2474E5"/>
      <path id="Vector_10" d="M132.599 28.8505C132.553 28.8617 132.506 28.8702 132.46 28.8842C130.109 29.5951 127.725 30.1484 125.268 30.3817C123.701 30.5309 122.133 30.5382 120.566 30.3951C118.701 30.2249 116.869 29.8716 115.061 29.3954C114.396 29.22 113.736 29.0273 113.033 28.8179C113.112 28.9256 113.164 29.0003 113.22 29.0726C115.093 31.48 117.549 32.9842 120.599 33.5688C121.631 33.7667 122.673 33.8144 123.722 33.7442C125.927 33.5965 127.924 32.8796 129.736 31.6677C130.871 30.9084 131.834 29.974 132.632 28.8807C132.641 28.8666 132.65 28.853 132.659 28.8389C132.636 28.827 132.615 28.8249 132.599 28.8505Z" fill="#FFD333"/>
      <path d="M 34.599 5.694 L 43.569 5.694 L 43.569 8.216 L 37.485 8.216 L 37.485 13.624 L 42.217 13.624 L 42.217 16.172 L 37.485 16.172 L 37.485 24.804 L 34.599 24.804 Z" style="fill: rgb(255, 255, 255); stroke-linejoin: round;"/>
      <path d="M 50.545 25.064 Q 48.933 25.064 47.568 24.297 Q 46.203 23.53 45.384 22.113 Q 44.565 20.696 44.565 18.798 Q 44.565 16.926 45.28 15.522 Q 45.995 14.118 47.321 13.338 Q 48.647 12.558 50.441 12.558 Q 51.481 12.558 52.391 12.922 Q 53.301 13.286 53.925 13.819 Q 54.549 14.352 54.757 14.872 L 54.809 12.87 L 57.487 12.87 L 57.487 24.804 L 54.835 24.804 L 54.783 22.698 Q 54.341 23.634 53.171 24.349 Q 52.001 25.064 50.545 25.064 Z M 51.013 22.724 Q 52.495 22.724 53.509 21.697 Q 54.523 20.67 54.523 19.006 L 54.523 18.824 Q 54.523 17.706 54.055 16.822 Q 53.587 15.938 52.781 15.444 Q 51.975 14.95 51.013 14.95 Q 49.349 14.95 48.439 16.029 Q 47.529 17.108 47.529 18.824 Q 47.529 20.566 48.426 21.645 Q 49.323 22.724 51.013 22.724 Z" style="fill: rgb(255, 255, 255); stroke-linejoin: round;"/>
      <path d="M 65.36 25.064 Q 64.112 25.064 62.773 24.739 Q 61.434 24.414 60.862 23.972 L 61.798 21.762 Q 63.358 22.854 65.36 22.854 Q 67.362 22.854 67.362 21.684 Q 67.362 21.164 66.946 20.878 Q 66.53 20.592 65.464 20.202 L 64.476 19.838 Q 62.916 19.214 62.006 18.343 Q 61.096 17.472 61.096 16.042 Q 61.096 14.404 62.383 13.481 Q 63.67 12.558 65.828 12.558 Q 66.894 12.558 67.921 12.792 Q 68.948 13.026 69.494 13.39 L 68.48 15.626 Q 68.142 15.288 67.401 15.041 Q 66.66 14.794 65.75 14.794 Q 63.904 14.794 63.904 15.912 Q 63.904 16.536 64.398 16.861 Q 64.892 17.186 66.01 17.576 Q 66.114 17.602 66.816 17.862 Q 68.48 18.512 69.286 19.344 Q 70.092 20.176 70.092 21.476 Q 70.092 23.244 68.753 24.154 Q 67.414 25.064 65.36 25.064 Z" style="fill: rgb(255, 255, 255); stroke-linejoin: round;"/>
      <path d="M 74.042 15.158 L 71.936 15.158 L 71.936 12.87 L 74.042 12.87 L 74.042 8.008 L 76.876 7.384 L 76.876 12.87 L 79.632 12.87 L 79.632 15.158 L 76.876 15.158 L 76.876 24.804 L 74.042 24.804 Z" style="fill: rgb(255, 255, 255); stroke-linejoin: round;"/>
      <path d="M 82.096 5.694 L 86.308 5.694 Q 89.87 5.694 91.521 7.215 Q 93.172 8.736 93.172 11.388 Q 93.172 14.456 91.378 16.094 Q 89.584 17.732 86.048 17.732 L 85.034 17.732 L 85.034 24.804 L 82.096 24.804 Z M 86.126 15.158 Q 88.414 15.158 89.324 14.144 Q 90.234 13.13 90.234 11.7 Q 90.234 10.166 89.35 9.204 Q 88.466 8.242 86.386 8.242 L 85.034 8.242 L 85.034 15.158 Z" style="fill: rgb(255, 255, 255); stroke-linejoin: round;"/>
      <path d="M 100.956 25.064 Q 99.344 25.064 97.979 24.297 Q 96.614 23.53 95.795 22.113 Q 94.976 20.696 94.976 18.798 Q 94.976 16.926 95.691 15.522 Q 96.406 14.118 97.732 13.338 Q 99.058 12.558 100.852 12.558 Q 101.892 12.558 102.802 12.922 Q 103.712 13.286 104.336 13.819 Q 104.96 14.352 105.168 14.872 L 105.22 12.87 L 107.898 12.87 L 107.898 24.804 L 105.246 24.804 L 105.194 22.698 Q 104.752 23.634 103.582 24.349 Q 102.412 25.064 100.956 25.064 Z M 101.424 22.724 Q 102.906 22.724 103.92 21.697 Q 104.934 20.67 104.934 19.006 L 104.934 18.824 Q 104.934 17.706 104.466 16.822 Q 103.998 15.938 103.192 15.444 Q 102.386 14.95 101.424 14.95 Q 99.76 14.95 98.85 16.029 Q 97.94 17.108 97.94 18.824 Q 97.94 20.566 98.837 21.645 Q 99.734 22.724 101.424 22.724 Z" style="fill: rgb(255, 255, 255); stroke-linejoin: round;"/>
      <path d="M 115.772 25.064 Q 114.524 25.064 113.185 24.739 Q 111.846 24.414 111.274 23.972 L 112.21 21.762 Q 113.77 22.854 115.772 22.854 Q 117.774 22.854 117.774 21.684 Q 117.774 21.164 117.358 20.878 Q 116.942 20.592 115.876 20.202 L 114.888 19.838 Q 113.328 19.214 112.418 18.343 Q 111.508 17.472 111.508 16.042 Q 111.508 14.404 112.795 13.481 Q 114.082 12.558 116.24 12.558 Q 117.306 12.558 118.333 12.792 Q 119.36 13.026 119.906 13.39 L 118.892 15.626 Q 118.554 15.288 117.813 15.041 Q 117.072 14.794 116.162 14.794 Q 114.316 14.794 114.316 15.912 Q 114.316 16.536 114.81 16.861 Q 115.304 17.186 116.422 17.576 Q 116.526 17.602 117.228 17.862 Q 118.892 18.512 119.698 19.344 Q 120.504 20.176 120.504 21.476 Q 120.504 23.244 119.165 24.154 Q 117.826 25.064 115.772 25.064 Z" style="fill: rgb(255, 255, 255); stroke-linejoin: round;"/>
      <path d="M 127.522 25.064 Q 126.274 25.064 124.935 24.739 Q 123.596 24.414 123.024 23.972 L 123.96 21.762 Q 125.52 22.854 127.522 22.854 Q 129.524 22.854 129.524 21.684 Q 129.524 21.164 129.108 20.878 Q 128.692 20.592 127.626 20.202 L 126.638 19.838 Q 125.078 19.214 124.168 18.343 Q 123.258 17.472 123.258 16.042 Q 123.258 14.404 124.545 13.481 Q 125.832 12.558 127.99 12.558 Q 129.056 12.558 130.083 12.792 Q 131.11 13.026 131.656 13.39 L 130.642 15.626 Q 130.304 15.288 129.563 15.041 Q 128.822 14.794 127.912 14.794 Q 126.066 14.794 126.066 15.912 Q 126.066 16.536 126.56 16.861 Q 127.054 17.186 128.172 17.576 Q 128.276 17.602 128.978 17.862 Q 130.642 18.512 131.448 19.344 Q 132.254 20.176 132.254 21.476 Q 132.254 23.244 130.915 24.154 Q 129.576 25.064 127.522 25.064 Z" style="fill: rgb(255, 255, 255); stroke-linejoin: round;"/>
      
    </g>
  </g>
</svg>