<svg width="29" height="33" viewBox="0 0 29 33" fill="none" xmlns="http://www.w3.org/2000/svg">
<path d="M27.1 1.46632e-05H1.68501C1.46348 -0.00091145 1.24395 0.0420406 1.0391 0.126392C0.834248 0.210743 0.648129 0.334822 0.491477 0.491474C0.334826 0.648125 0.210739 0.834246 0.126388 1.0391C0.0420368 1.24395 -0.000911449 1.46348 1.46644e-05 1.68501V27.149C-0.00064689 27.3704 0.0424982 27.5897 0.126968 27.7943C0.211437 27.9989 0.335562 28.1848 0.492187 28.3413C0.648812 28.4977 0.834845 28.6216 1.03957 28.7058C1.24429 28.7901 1.46364 28.8329 1.68501 28.832H2.85502V30.938C2.85502 31.2084 2.90827 31.4762 3.01175 31.726C3.11522 31.9758 3.26689 32.2028 3.45808 32.3939C3.64928 32.5851 3.87626 32.7368 4.12607 32.8403C4.37588 32.9438 4.64362 32.997 4.91402 32.997C5.18441 32.997 5.45215 32.9438 5.70196 32.8403C5.95177 32.7368 6.17875 32.5851 6.36995 32.3939C6.56114 32.2028 6.71281 31.9758 6.81628 31.726C6.91976 31.4762 6.97301 31.2084 6.97301 30.938V28.832H21.765V30.938C21.7769 31.4764 21.9991 31.9887 22.384 32.3652C22.7689 32.7418 23.286 32.9526 23.8245 32.9526C24.363 32.9526 24.8801 32.7418 25.265 32.3652C25.65 31.9887 25.8722 31.4764 25.884 30.938V28.832H27.054C27.2756 28.8329 27.4951 28.79 27.6999 28.7056C27.9048 28.6213 28.0909 28.4972 28.2476 28.3406C28.4042 28.1839 28.5283 27.9978 28.6126 27.7929C28.697 27.5881 28.7399 27.3686 28.739 27.147V1.68501C28.7433 1.24475 28.5735 0.820633 28.2665 0.505029C27.9595 0.189425 27.5402 0.00790773 27.1 1.46632e-05ZM14.37 25.51C12.9391 25.5056 11.5299 25.1591 10.26 24.4995C8.99019 23.8399 7.89644 22.8862 7.07001 21.718C9.42592 22.4926 11.89 22.8875 14.37 22.888C16.8497 22.8838 19.3132 22.489 21.67 21.718C20.8436 22.8862 19.7498 23.8399 18.48 24.4995C17.2101 25.1591 15.801 25.5056 14.37 25.51ZM25.978 8.28501C25.4319 8.28501 24.9082 8.50194 24.5221 8.88808C24.1359 9.27422 23.919 9.79793 23.919 10.344C23.919 10.8901 24.1359 11.4138 24.5221 11.7999C24.9082 12.1861 25.4319 12.403 25.978 12.403V17.693C25.9799 17.7242 25.9752 17.7555 25.9641 17.7848C25.953 17.814 25.9358 17.8406 25.9137 17.8627C25.8916 17.8848 25.865 17.902 25.8358 17.9131C25.8065 17.9242 25.7752 17.9289 25.744 17.927H3.08901C3.05779 17.9289 3.02652 17.9242 2.99727 17.9131C2.96802 17.902 2.94145 17.8848 2.91933 17.8627C2.89721 17.8406 2.88005 17.814 2.86896 17.7848C2.85787 17.7555 2.85312 17.7242 2.85502 17.693V12.451C3.12541 12.451 3.39315 12.3978 3.64296 12.2943C3.89277 12.1908 4.11975 12.0391 4.31095 11.8479C4.50215 11.6568 4.65381 11.4298 4.75729 11.18C4.86076 10.9301 4.91402 10.6624 4.91402 10.392C4.91402 10.1216 4.86076 9.85388 4.75729 9.60407C4.65381 9.35426 4.50215 9.12728 4.31095 8.93608C4.11975 8.74489 3.89277 8.59322 3.64296 8.48975C3.39315 8.38627 3.12541 8.33301 2.85502 8.33301V3.04201C2.8588 2.98119 2.88467 2.92385 2.92776 2.88076C2.97085 2.83767 3.02819 2.8118 3.08901 2.80801H25.7C25.7312 2.80612 25.7625 2.81087 25.7918 2.82196C25.821 2.83305 25.8476 2.85022 25.8697 2.87234C25.8918 2.89446 25.909 2.92102 25.9201 2.95027C25.9312 2.97952 25.9359 3.01079 25.934 3.04201V8.28501H25.978Z" fill="#1861C5"/>
</svg>
